# xmcd
#
# Track frame offsets:
#	150
#	10195
#	22591
#	34686
#	45633
#	58893
#	70380
#	83691
#	94804
#	106001
#	115731
#	129671
#	139785
#	149889
#
# Disc length: 2099 seconds
#
# Revision: 1
# Processed by: cddbd v1.5.2PL0 Copyright (c) Steve Scherf et al.
# Submitted via: audiograbber 1.83.01
#
DISCID=bb08310e
DTITLE=Funcionário - Só Viola
DYEAR=2013
DGENRE=Country
TTITLE0=Chalana
TTITLE1=Menino da porteira
TTITLE2=Cabocla Tereza
TTITLE3=Galopeira
TTITLE4=Chico Mineiro
TTITLE5=Canoeiro
TTITLE6=Mourão da porteira
TTITLE7=Violeiro feliz
TTITLE8=João de barro
TTITLE9=Asa branca
TTITLE10=Colcha de retalho
TTITLE11=O que tem a Rosa
TTITLE12=Sanfoneiro folgado
TTITLE13=Brincando com a viola
EXTD=Brazilian traditional country music, guitar only
EXTT0=
EXTT1=
EXTT2=
EXTT3=
EXTT4=
EXTT5=
EXTT6=
EXTT7=
EXTT8=
EXTT9=
EXTT10=
EXTT11=
EXTT12=
EXTT13=
PLAYORDER=
